<svg xmlns="http://www.w3.org/2000/svg" viewBox="0 0 110.58 110.58"><title>icon-logistica</title><g id="ce096d72-208d-4df7-8992-c43c9c802f20" data-name="Livello 2"><g id="00dc6f8f-5d04-47b8-bb73-ec6880d99e22" data-name="Livello 1"><path d="M55.28,0a55.29,55.29,0,1,0,55.31,55.29A55.29,55.29,0,0,0,55.28,0Zm0,2.64A52.89,52.89,0,1,1,2.61,55.76q0-.11,0-.23A52.69,52.69,0,0,1,55.11,2.65h.17ZM87,26.44H54.32a1.1,1.1,0,0,0-1.2,1L44.7,61.78V27.88a1.35,1.35,0,0,0-1.2-1.44h0a1.35,1.35,0,0,0-1.2,1.44V66.35c-1,.24-1.92.48-2.65.72V51.69a1.14,1.14,0,0,0-1.07-1.2H19.69a1.14,1.14,0,0,0-1.2,1.2V70.2a1.14,1.14,0,0,0,1.07,1.2H35.08A4.84,4.84,0,0,0,34.35,74H17a1.33,1.33,0,1,0-.32,2.64H34.11a9.23,9.23,0,0,0,18.27,0h24a9.29,9.29,0,0,0,9.14,7.93,9.13,9.13,0,0,0,9.14-9.13h0a9.62,9.62,0,0,0-6.49-8.89V28.37a1.47,1.47,0,0,0-.72-1.68h0a.74.74,0,0,0-.48-.24ZM55.28,29.09H78.84V60.34L76.2,63.47V51.69H73.55V63.46H61.77v2.64H74l-2.16,2.64H50a13.36,13.36,0,0,0-1.92-1.44L59.12,56.25l1,1A1.36,1.36,0,1,0,62,55.29h0l-3.85-3.85a1.25,1.25,0,0,0-1-.48,1.14,1.14,0,0,0-1.2,1.2,1.82,1.82,0,0,0,.48,1l1,1L46.86,64.67Zm26.45,0h3.85v37A9.29,9.29,0,0,0,76.44,74h-24c-.24-1-.48-1.92-.72-2.64h21.4l8.66-10.1ZM20.89,52.89h2.65v6.49a1.14,1.14,0,0,0,1.07,1.2h.13c.24,0,.48,0,.48-.24l1.2-.72h0l2.16-1,2.16,1h0l1.2.72a1.24,1.24,0,0,0,1.64-.62l0-.1a.84.84,0,0,1,.24-.48V52.65h2.64V68.51H20.89Zm5.29,0h5.29v4.57l-2.16-1a1.09,1.09,0,0,0-1.2,0l-2.16,1V52.89ZM43.49,68.76A6.49,6.49,0,1,1,37,75.25a6.18,6.18,0,0,1,6.49-6.49Zm42.08,0a6.49,6.49,0,1,1-6.49,6.49v-.48a6.22,6.22,0,0,1,6.42-6h.07ZM43.49,71.4a3.85,3.85,0,1,0,3.85,3.85,3.8,3.8,0,0,0-3.75-3.85h-.1Zm42.08,0a3.85,3.85,0,1,0,3.85,3.85,3.8,3.8,0,0,0-3.75-3.85h-.1ZM43.49,74a1.2,1.2,0,1,1-1.2,1.2C42,74.52,42.53,74,43.49,74Zm42.08,0a1.2,1.2,0,1,1-1.2,1.2A1.14,1.14,0,0,1,85.44,74Z" fill="#fff"/></g></g></svg>